<?xml version="1.0" standalone="no"?>
<!DOCTYPE svg PUBLIC "-//W3C//DTD SVG 20010904//EN"
 "http://www.w3.org/TR/2001/REC-SVG-20010904/DTD/svg10.dtd">
<svg version="1.0" xmlns="http://www.w3.org/2000/svg"
 width="512.000000pt" height="512.000000pt" viewBox="0 0 512.000000 512.000000"
 preserveAspectRatio="xMidYMid meet">

<g transform="translate(0.000000,512.000000) scale(0.100000,-0.100000)"
fill="#000000" stroke="none">
<path d="M1611 5102 c-19 -9 -43 -29 -54 -43 -28 -39 -1160 -4573 -1152 -4616
8 -42 50 -92 92 -109 23 -10 82 -14 207 -14 l174 0 4 -109 c3 -91 7 -115 24
-137 70 -94 190 -96 251 -5 20 30 23 46 23 142 l0 109 974 0 974 0 4 -109 c3
-91 7 -115 24 -137 70 -94 190 -96 251 -5 20 30 23 46 23 142 l0 109 183 0
c153 0 187 3 217 18 50 25 80 75 80 131 0 26 -121 528 -279 1158 l-278 1111
342 342 341 341 65 -21 c123 -42 276 -25 393 44 153 89 248 299 217 475 -45
254 -283 430 -527 391 -173 -28 -291 -116 -366 -276 -31 -66 -33 -75 -33 -184
0 -89 4 -126 19 -164 l19 -48 -276 -276 c-152 -152 -278 -274 -280 -272 -2 3
-113 441 -246 973 -133 533 -249 979 -258 993 -9 14 -33 34 -54 45 -36 18 -63
19 -551 19 -469 0 -516 -2 -547 -18z m1160 -1277 l248 -990 -352 -353 -352
-352 -5 1044 c-5 1035 -5 1045 -26 1072 -37 50 -70 68 -124 68 -56 0 -91 -20
-127 -74 l-23 -33 0 -1148 0 -1149 -470 0 c-307 0 -470 3 -470 10 0 6 163 660
361 1455 l362 1445 365 -2 366 -3 247 -990z m1532 181 c50 -18 76 -42 98 -91
23 -51 23 -89 0 -141 -46 -101 -175 -129 -261 -58 -42 36 -60 75 -60 131 0 74
41 131 115 160 40 15 62 15 108 -1z m-1060 -2068 l7 -28 -362 0 -363 0 290
290 290 290 66 -262 c36 -145 69 -275 72 -290z m199 -798 c65 -256 120 -477
123 -492 l7 -28 -1411 0 c-1255 0 -1411 2 -1411 15 0 12 187 773 231 938 l10
37 1167 -2 1167 -3 117 -465z"/>
</g>
</svg>
